<svg xmlns="http://www.w3.org/2000/svg" width="75.939" height="76.532" viewBox="0 0 75.939 76.532">
  <path id="whatsapp" d="M48.7,42.707q.642,0,4.821,2.175T57.943,47.5a2.1,2.1,0,0,1,.1.74A10.414,10.414,0,0,1,57.2,52a6.635,6.635,0,0,1-3.509,3.239,11.692,11.692,0,0,1-5.043,1.312q-2.817,0-9.393-3.065a28.187,28.187,0,0,1-8.4-5.834A65.2,65.2,0,0,1,23.533,38.5q-3.56-5.289-3.509-9.591v-.4a10.934,10.934,0,0,1,3.659-7.811,3.74,3.74,0,0,1,2.571-1.088,7.812,7.812,0,0,1,.89.075,7.948,7.948,0,0,0,.938.075,2.032,2.032,0,0,1,1.31.321,3.565,3.565,0,0,1,.767,1.36q.4.989,1.63,4.351a29.377,29.377,0,0,1,1.237,3.709q0,1.037-1.705,2.843t-1.707,2.3a1.41,1.41,0,0,0,.246.74A22.29,22.29,0,0,0,34.9,42.162a31.552,31.552,0,0,0,7.464,4.992,2.189,2.189,0,0,0,1.088.347q.74,0,2.67-2.4t2.571-2.4ZM38.661,68.91A30.223,30.223,0,0,0,50.7,66.438,30.575,30.575,0,0,0,67.237,49.9a30.552,30.552,0,0,0,0-24.078A30.575,30.575,0,0,0,50.7,9.286a30.552,30.552,0,0,0-24.078,0A30.575,30.575,0,0,0,10.086,25.823a30.743,30.743,0,0,0,3.461,30.233l-3.9,11.518,11.964-3.806A30.4,30.4,0,0,0,38.661,68.91Zm0-68.325a36.224,36.224,0,0,1,14.46,2.966A36.849,36.849,0,0,1,72.972,23.4a36.729,36.729,0,0,1,0,28.921,36.849,36.849,0,0,1-19.85,19.85,36.2,36.2,0,0,1-14.46,2.966,36.708,36.708,0,0,1-18.046-4.647L0,77.117,6.724,57.1A37.063,37.063,0,0,1,4.351,23.4,36.849,36.849,0,0,1,24.2,3.551,36.163,36.163,0,0,1,38.661.585Z" transform="translate(0 -0.585)" fill="#4bf5c7"/>
</svg>
